# xmcd
#
# Track frame offsets: 
#        150
#        22838
#        49208
#        69791
#        101261
#        120461
#        142459
#        163193
#        183316
#        205688
#        227317
#        255240
#        283692
#        305766
#        323348
#
# Disc length: 4507 seconds
#
# Revision: 3
# Processed by: cddbd v1.5.2PL0 Copyright (c) Steve Scherf et al.
# Submitted via: ExactAudioCopy v1.0b3
#
DISCID=c111990f
DTITLE=Various Artist - Blues Paradise vol..10
DYEAR=2003
DGENRE=Blues
TTITLE0=Dr.Sam and Manager Care Blue Band - Another Case Of Shinles Blue
TTITLE0=s
TTITLE1=Mike Dugan and The Blues Mission - All My Blues
TTITLE2=Mighty Sam McClan - Too Proud
TTITLE3=Bill Perry - I'm Leaving You
TTITLE4=John Campbell - Love's Name
TTITLE5=Willie Lomax - For Better Or For Worse
TTITLE6=Eric Culberson - No Rules To The Come
TTITLE7=Sherman Robertson - Victim Of Circumstance
TTITLE8=Lucky Peterson - Who's Been Talkin'?
TTITLE9=The Holmes Brothers - And I Love Her
TTITLE10=Tino Gonzales - One More Mile
TTITLE11=Paul Kosoff - Just For You
TTITLE12=Snowy White - Highway To The Sun
TTITLE13=Jake Thunder - Just A Fool Who Loved You Too Much
TTITLE14=Sunnyland Blues Band - Bang For The Buck
EXTD=YEAR: 2003
EXTT0=
EXTT1=
EXTT2=
EXTT3=
EXTT4=
EXTT5=
EXTT6=
EXTT7=
EXTT8=
EXTT9=
EXTT10=
EXTT11=
EXTT12=
EXTT13=
EXTT14=
PLAYORDER=
